<svg width="100" height="100" viewBox="0 0 100 100" fill="none" xmlns="http://www.w3.org/2000/svg">
<g clip-path="url(#clip0_561_918)">
<circle cx="50" cy="50" r="50" fill="url(#paint0_linear_561_918)"/>
<path d="M47.5 75C47.5 76.3807 48.6193 77.5 50 77.5C51.3807 77.5 52.5 76.3807 52.5 75H47.5ZM51.7678 23.2322C50.7915 22.2559 49.2085 22.2559 48.2322 23.2322L32.3223 39.1421C31.346 40.1184 31.346 41.7014 32.3223 42.6777C33.2986 43.654 34.8816 43.654 35.8579 42.6777L50 28.5355L64.1421 42.6777C65.1184 43.654 66.7014 43.654 67.6777 42.6777C68.654 41.7014 68.654 40.1184 67.6777 39.1421L51.7678 23.2322ZM52.5 75L52.5 25H47.5L47.5 75H52.5Z" fill="white"/>
</g>
<defs>
<linearGradient id="paint0_linear_561_918" x1="50" y1="0" x2="50" y2="100" gradientUnits="userSpaceOnUse">
<stop stop-color="#7ED0E5"/>
<stop offset="1" stop-color="#2E839E"/>
</linearGradient>
<clipPath id="clip0_561_918">
<rect width="100" height="100" fill="white"/>
</clipPath>
</defs>
</svg>
