<svg width="30" height="30" viewBox="0 0 30 30" fill="none" xmlns="http://www.w3.org/2000/svg">
<path d="M16.5 3C16.5 2.17157 15.8284 1.5 15 1.5C14.1716 1.5 13.5 2.17157 13.5 3L16.5 3ZM13.9393 29.0607C14.5251 29.6464 15.4749 29.6464 16.0607 29.0607L25.6066 19.5147C26.1924 18.9289 26.1924 17.9792 25.6066 17.3934C25.0208 16.8076 24.0711 16.8076 23.4853 17.3934L15 25.8787L6.51472 17.3934C5.92893 16.8076 4.97919 16.8076 4.3934 17.3934C3.80761 17.9792 3.80761 18.9289 4.3934 19.5147L13.9393 29.0607ZM13.5 3L13.5 28H16.5L16.5 3L13.5 3Z" fill="white"/>
</svg>
