<svg width="30" height="30" viewBox="0 0 30 30" fill="none" xmlns="http://www.w3.org/2000/svg">
<path fill-rule="evenodd" clip-rule="evenodd" d="M28.9296 5.35808C28.9296 4.78901 28.7041 4.24453 28.3022 3.84205C27.9002 3.44068 27.355 3.21484 26.7873 3.21484C21.5979 3.21484 8.40416 3.21484 3.21475 3.21484C2.64699 3.21484 2.10179 3.44068 1.69985 3.84205C1.29791 4.24453 1.07239 4.78901 1.07239 5.35808C1.07239 10.2002 1.07239 21.9438 1.07239 26.7859C1.07239 27.355 1.29791 27.8995 1.69985 28.302C2.10179 28.7033 2.64699 28.9292 3.21475 28.9292C8.40416 28.9292 21.5979 28.9292 26.7873 28.9292C27.355 28.9292 27.9002 28.7033 28.3022 28.302C28.7041 27.8995 28.9296 27.355 28.9296 26.7859C28.9296 21.9438 28.9296 10.2002 28.9296 5.35808Z" fill="#7ED0E5"/>
<path fill-rule="evenodd" clip-rule="evenodd" d="M22.5 2.14286H16.0714V1.07143C16.0714 0.48 15.5914 0 15 0C14.4086 0 13.9286 0.48 13.9286 1.07143V2.14286H7.5V1.07143C7.5 0.48 7.02 0 6.42857 0C5.83714 0 5.35714 0.48 5.35714 1.07143V2.14286H3.21429C2.36143 2.14286 1.54393 2.48143 0.941783 3.08464C0.338569 3.68678 0 4.50429 0 5.35714C0 10.2 0 21.9429 0 26.7857C0 27.6386 0.338569 28.4561 0.941783 29.0582C1.54393 29.6614 2.36143 30 3.21429 30H26.7857C27.6386 30 28.4561 29.6614 29.0582 29.0582C29.6614 28.4561 30 27.6386 30 26.7857V5.35714C30 4.50429 29.6614 3.68678 29.0582 3.08464C28.4561 2.48143 27.6386 2.14286 26.7857 2.14286H24.6429V1.07143C24.6429 0.48 24.1629 0 23.5714 0C22.98 0 22.5 0.48 22.5 1.07143V2.14286ZM24.6429 4.28571V5.35714C24.6429 5.94857 24.1629 6.42857 23.5714 6.42857C22.98 6.42857 22.5 5.94857 22.5 5.35714V4.28571H16.0714V5.35714C16.0714 5.94857 15.5914 6.42857 15 6.42857C14.4086 6.42857 13.9286 5.94857 13.9286 5.35714V4.28571H7.5V5.35714C7.5 5.94857 7.02 6.42857 6.42857 6.42857C5.83714 6.42857 5.35714 5.94857 5.35714 5.35714V4.28571H3.21429C2.93036 4.28571 2.65714 4.39821 2.45678 4.59964C2.25536 4.8 2.14286 5.07321 2.14286 5.35714V26.7857C2.14286 27.0696 2.25536 27.3429 2.45678 27.5432C2.65714 27.7446 2.93036 27.8571 3.21429 27.8571H26.7857C27.0696 27.8571 27.3429 27.7446 27.5432 27.5432C27.7446 27.3429 27.8571 27.0696 27.8571 26.7857V5.35714C27.8571 5.07321 27.7446 4.8 27.5432 4.59964C27.3429 4.39821 27.0696 4.28571 26.7857 4.28571H24.6429ZM8.57143 21.4286C9.16286 21.4286 9.64286 21.9086 9.64286 22.5C9.64286 23.0914 9.16286 23.5714 8.57143 23.5714C7.98 23.5714 7.5 23.0914 7.5 22.5C7.5 21.9086 7.98 21.4286 8.57143 21.4286ZM15 21.4286C15.5914 21.4286 16.0714 21.9086 16.0714 22.5C16.0714 23.0914 15.5914 23.5714 15 23.5714C14.4086 23.5714 13.9286 23.0914 13.9286 22.5C13.9286 21.9086 14.4086 21.4286 15 21.4286ZM21.4286 21.4286C22.02 21.4286 22.5 21.9086 22.5 22.5C22.5 23.0914 22.02 23.5714 21.4286 23.5714C20.8371 23.5714 20.3571 23.0914 20.3571 22.5C20.3571 21.9086 20.8371 21.4286 21.4286 21.4286ZM8.57143 16.0714C9.16286 16.0714 9.64286 16.5514 9.64286 17.1429C9.64286 17.7343 9.16286 18.2143 8.57143 18.2143C7.98 18.2143 7.5 17.7343 7.5 17.1429C7.5 16.5514 7.98 16.0714 8.57143 16.0714ZM15 16.0714C15.5914 16.0714 16.0714 16.5514 16.0714 17.1429C16.0714 17.7343 15.5914 18.2143 15 18.2143C14.4086 18.2143 13.9286 17.7343 13.9286 17.1429C13.9286 16.5514 14.4086 16.0714 15 16.0714ZM21.4286 16.0714C22.02 16.0714 22.5 16.5514 22.5 17.1429C22.5 17.7343 22.02 18.2143 21.4286 18.2143C20.8371 18.2143 20.3571 17.7343 20.3571 17.1429C20.3571 16.5514 20.8371 16.0714 21.4286 16.0714ZM8.57143 10.7143C9.16286 10.7143 9.64286 11.1943 9.64286 11.7857C9.64286 12.3771 9.16286 12.8571 8.57143 12.8571C7.98 12.8571 7.5 12.3771 7.5 11.7857C7.5 11.1943 7.98 10.7143 8.57143 10.7143ZM15 10.7143C15.5914 10.7143 16.0714 11.1943 16.0714 11.7857C16.0714 12.3771 15.5914 12.8571 15 12.8571C14.4086 12.8571 13.9286 12.3771 13.9286 11.7857C13.9286 11.1943 14.4086 10.7143 15 10.7143ZM21.4286 10.7143C22.02 10.7143 22.5 11.1943 22.5 11.7857C22.5 12.3771 22.02 12.8571 21.4286 12.8571C20.8371 12.8571 20.3571 12.3771 20.3571 11.7857C20.3571 11.1943 20.8371 10.7143 21.4286 10.7143Z" fill="white"/>
</svg>
