<svg width="101" height="101" viewBox="0 0 101 101" fill="none" xmlns="http://www.w3.org/2000/svg">
<g clip-path="url(#clip0_39_27)">
<path d="M50.5 0.5C49.58 0.5 48.8333 1.24667 48.8333 2.16667V12.1667C48.8333 13.0867 49.58 13.8333 50.5 13.8333C51.42 13.8333 52.1667 13.0867 52.1667 12.1667V2.16667C52.1667 1.24667 51.42 0.5 50.5 0.5Z" fill="#F0C419"/>
<path d="M50.5 87.1667C49.58 87.1667 48.8333 87.9133 48.8333 88.8333V98.8333C48.8333 99.7533 49.58 100.5 50.5 100.5C51.42 100.5 52.1667 99.7533 52.1667 98.8333V88.8333C52.1667 87.9133 51.42 87.1667 50.5 87.1667Z" fill="#F0C419"/>
<path d="M98.8333 48.8333H88.8333C87.9133 48.8333 87.1667 49.58 87.1667 50.5C87.1667 51.42 87.9133 52.1667 88.8333 52.1667H98.8333C99.7533 52.1667 100.5 51.42 100.5 50.5C100.5 49.58 99.7533 48.8333 98.8333 48.8333Z" fill="#F0C419"/>
<path d="M13.8333 50.5C13.8333 49.58 13.0867 48.8333 12.1667 48.8333H2.16667C1.24667 48.8333 0.5 49.58 0.5 50.5C0.5 51.42 1.24667 52.1667 2.16667 52.1667H12.1667C13.0867 52.1667 13.8333 51.42 13.8333 50.5Z" fill="#F0C419"/>
<path d="M77.6067 25.06C78.0333 25.06 78.46 24.8967 78.785 24.5717L88.345 15.0117C88.9967 14.36 88.9967 13.3067 88.345 12.655C87.6933 12.0033 86.64 12.0033 85.9883 12.655L76.4283 22.215C75.7767 22.8667 75.7767 23.92 76.4283 24.5717C76.7533 24.8983 77.18 25.06 77.6067 25.06Z" fill="#F0C419"/>
<path d="M22.215 76.4283L12.655 85.9883C12.0033 86.64 12.0033 87.6933 12.655 88.345C12.98 88.67 13.4067 88.8333 13.8333 88.8333C14.26 88.8333 14.6867 88.67 15.0117 88.345L24.5717 78.785C25.2233 78.1333 25.2233 77.08 24.5717 76.4283C23.92 75.7767 22.8667 75.7767 22.215 76.4283Z" fill="#F0C419"/>
<path d="M78.785 76.4283C78.1333 75.7767 77.08 75.7767 76.4283 76.4283C75.7767 77.08 75.7767 78.1333 76.4283 78.785L85.9883 88.345C86.3133 88.67 86.74 88.8333 87.1667 88.8333C87.5933 88.8333 88.02 88.67 88.345 88.345C88.9967 87.6933 88.9967 86.64 88.345 85.9883L78.785 76.4283Z" fill="#F0C419"/>
<path d="M15.0117 12.655C14.36 12.0033 13.3067 12.0033 12.655 12.655C12.0033 13.3067 12.0033 14.36 12.655 15.0117L22.215 24.5717C22.54 24.8967 22.9667 25.06 23.3933 25.06C23.82 25.06 24.2467 24.8967 24.5717 24.5717C25.2233 23.92 25.2233 22.8667 24.5717 22.215L15.0117 12.655Z" fill="#F0C419"/>
<path d="M84.2517 36.1733C84.5217 36.8083 85.1384 37.19 85.7867 37.19C86.0034 37.19 86.225 37.1467 86.4367 37.0567L91.04 35.1033C91.8867 34.7433 92.2834 33.765 91.9234 32.9183C91.5634 32.0717 90.5833 31.675 89.7383 32.035L85.135 33.9883C84.2867 34.3483 83.8917 35.3267 84.2517 36.1733Z" fill="#F0C419"/>
<path d="M16.7483 64.8267C16.3883 63.98 15.41 63.5833 14.5633 63.9433L9.96001 65.8967C9.11334 66.2567 8.71667 67.235 9.07667 68.0817C9.34667 68.7167 9.96334 69.0983 10.6117 69.0983C10.8283 69.0983 11.05 69.055 11.2617 68.965L15.865 67.0117C16.7133 66.6517 17.1083 65.6733 16.7483 64.8267Z" fill="#F0C419"/>
<path d="M91.3017 65.1884L86.6667 63.3134C85.815 62.9684 84.8417 63.3817 84.4967 64.235C84.1517 65.0884 84.565 66.06 85.4183 66.405L90.055 68.2784C90.26 68.36 90.4717 68.4 90.6783 68.4C91.3383 68.4 91.9633 68.0067 92.225 67.3567C92.5683 66.505 92.1567 65.5334 91.3017 65.1884Z" fill="#F0C419"/>
<path d="M9.69834 35.8133L14.3333 37.6867C14.5383 37.7683 14.75 37.8083 14.9567 37.8083C15.6167 37.8083 16.2417 37.415 16.5033 36.765C16.8483 35.9117 16.435 34.94 15.5817 34.595L10.945 32.7217C10.09 32.3767 9.12001 32.7883 8.77501 33.6433C8.43167 34.495 8.84334 35.4667 9.69834 35.8133Z" fill="#F0C419"/>
<path d="M67.0117 85.135C66.6517 84.2883 65.6733 83.8933 64.8267 84.2517C63.98 84.6117 63.5833 85.59 63.9433 86.4367L65.8967 91.04C66.1667 91.675 66.7833 92.0567 67.4317 92.0567C67.6483 92.0567 67.87 92.0133 68.0817 91.9233C68.9283 91.5633 69.325 90.585 68.965 89.7383L67.0117 85.135Z" fill="#F0C419"/>
<path d="M35.5233 16.8817C35.74 16.8817 35.9617 16.8383 36.1733 16.7483C37.02 16.3883 37.4167 15.41 37.0567 14.5633L35.1033 9.96C34.745 9.11167 33.7667 8.715 32.9183 9.07667C32.0717 9.43667 31.675 10.415 32.035 11.2617L33.9883 15.865C34.2567 16.5 34.875 16.8817 35.5233 16.8817Z" fill="#F0C419"/>
<path d="M36.765 84.4967C35.9133 84.155 34.94 84.5633 34.595 85.4183L32.7217 90.055C32.3767 90.9083 32.79 91.88 33.6433 92.225C33.8483 92.3067 34.06 92.3467 34.2667 92.3467C34.9267 92.3467 35.5517 91.9533 35.8133 91.3033L37.6867 86.6667C38.0317 85.8133 37.6183 84.8417 36.765 84.4967Z" fill="#F0C419"/>
<path d="M64.8584 16.625C65.5184 16.625 66.1433 16.2317 66.405 15.5817L68.2783 10.945C68.6233 10.0917 68.21 9.11999 67.3567 8.77499C66.505 8.42999 65.5317 8.84332 65.1867 9.69666L63.3134 14.3333C62.9684 15.1867 63.3817 16.1583 64.235 16.5033C64.44 16.585 64.6517 16.625 64.8584 16.625Z" fill="#F0C419"/>
<path d="M50.5 83.8333C68.9095 83.8333 83.8333 68.9095 83.8333 50.5C83.8333 32.0905 68.9095 17.1667 50.5 17.1667C32.0905 17.1667 17.1667 32.0905 17.1667 50.5C17.1667 68.9095 32.0905 83.8333 50.5 83.8333Z" fill="#F0C419"/>
<path d="M50.5 75.5C64.3071 75.5 75.5 64.3071 75.5 50.5C75.5 36.6929 64.3071 25.5 50.5 25.5C36.6929 25.5 25.5 36.6929 25.5 50.5C25.5 64.3071 36.6929 75.5 50.5 75.5Z" fill="#EDE21B"/>
</g>
<defs>
<clipPath id="clip0_39_27">
<rect width="100" height="100" fill="white" transform="translate(0.5 0.5)"/>
</clipPath>
</defs>
</svg>
