<svg width="800" height="800" viewBox="0 0 800 800" fill="none" xmlns="http://www.w3.org/2000/svg">
<g clip-path="url(#clip0_221_4844)">
<path d="M799.667 295.025H798.587C799.053 299.078 799.373 303.172 799.373 307.358C799.373 314.731 793.414 320.691 786.041 320.691C778.668 320.691 772.708 314.731 772.708 307.358C772.708 263.24 736.83 227.362 692.712 227.362C648.594 227.362 612.716 263.24 612.716 307.358C612.716 314.731 606.756 320.691 599.383 320.691C592.01 320.691 586.051 314.731 586.051 307.358C586.051 253.174 626.702 208.39 679.086 201.67C676.073 134.487 620.636 80.7026 552.719 80.7026C484.576 80.7026 428.979 134.833 426.312 202.337C437.365 204.95 448.071 209.27 458.017 215.416C482.229 230.415 499.162 253.947 505.695 281.679C507.375 288.852 502.935 296.025 495.775 297.718C488.602 299.332 481.429 294.959 479.736 287.799C469.63 244.841 426.419 218.122 383.554 228.242C340.61 238.348 313.891 281.493 323.997 324.437C325.677 331.597 321.237 338.77 314.064 340.463C313.051 340.703 312.024 340.81 311.011 340.81C304.971 340.81 299.492 336.663 298.038 330.53C294.119 313.851 294.465 297.172 298.198 281.546C270.76 277.533 243.041 287.892 224.962 309.838C208.19 330.224 203.297 356.476 209.296 380.301C209.31 380.461 209.39 380.594 209.403 380.754C213.483 396.567 222.336 411.286 235.868 422.446C241.548 427.139 242.361 435.525 237.695 441.218C235.055 444.418 231.242 446.071 227.389 446.071C224.402 446.071 221.416 445.084 218.922 443.031C202.697 429.672 191.084 412.219 184.977 392.62C131.073 378.568 74.3963 401.247 45.1178 449.444C27.5587 478.349 22.2923 512.374 30.3185 545.239C38.3448 578.118 58.6771 605.89 87.5957 623.462C93.8887 627.289 95.8886 635.475 92.0621 641.781C89.5556 645.914 85.1558 648.181 80.6627 648.181C78.8894 648.181 77.1295 647.701 75.4363 646.968C96.5019 659.447 120.754 667.087 146.686 668.207L256.134 668.247C326.89 667.113 387.501 623.449 413.339 561.692C439.511 624.262 501.375 668.353 573.331 668.353C698.312 668.353 799.987 566.678 799.987 441.698V308.371L799.667 295.025Z" fill="#D0E8F9"/>
<path d="M705.778 202.577C702.698 120.727 635.328 55.0372 552.746 55.0372C470.856 55.0372 403.953 119.621 399.82 200.497C392.38 200.657 384.901 201.537 377.474 203.283C346.329 210.616 321.677 231.042 307.758 257.307C269.333 249.508 229.788 263.08 204.43 293.865C187.751 314.131 179.378 339.303 180.298 365.315C118.567 354.196 55.7705 381.634 22.3855 436.565C1.10657 471.563 -5.25312 512.748 4.45306 552.532C14.1592 592.317 38.7847 625.942 73.7829 647.221C75.9428 648.541 78.3427 649.168 80.7026 649.168C85.209 649.168 89.5955 646.888 92.102 642.768C95.9285 636.462 93.9286 628.275 87.6356 624.449C58.717 606.876 38.3847 579.104 30.3584 546.226C22.3322 513.361 27.5986 479.336 45.1577 450.431C74.4362 402.247 131.113 379.568 185.017 393.607C191.124 413.219 202.75 430.658 218.962 444.018C221.456 446.058 224.442 447.058 227.429 447.058C231.282 447.058 235.095 445.404 237.735 442.205C242.414 436.512 241.588 428.112 235.908 423.432C222.362 412.286 213.523 397.553 209.443 381.741C209.429 381.581 209.349 381.448 209.336 381.288C203.336 357.462 208.23 331.21 225.002 310.824C243.081 288.879 270.8 278.519 298.238 282.533C294.505 298.172 294.145 314.838 298.078 331.517C299.518 337.663 305.011 341.796 311.051 341.796C312.064 341.796 313.091 341.676 314.104 341.45C321.277 339.756 325.717 332.583 324.037 325.424C313.931 282.479 340.65 239.335 383.594 229.229C426.459 219.109 469.67 245.828 479.776 288.786C481.469 295.945 488.642 300.318 495.815 298.705C502.975 297.012 507.415 289.839 505.735 282.666C499.202 254.934 482.269 231.402 458.057 216.403C448.111 210.243 437.405 205.936 426.352 203.323C429.019 135.82 484.616 81.6892 552.759 81.6892C620.676 81.6892 676.126 135.46 679.126 202.657C626.742 209.376 586.091 254.161 586.091 308.345C586.091 315.718 592.05 321.677 599.423 321.677C606.796 321.677 612.756 315.718 612.756 308.345C612.756 264.227 648.634 228.349 692.752 228.349C736.87 228.349 773.361 264.227 773.361 308.345C773.361 308.718 773.361 326.037 773.361 348.343C773.361 355.702 779.334 361.675 786.694 361.675C794.054 361.675 800.027 355.702 800.027 348.343V308.345C800 253.961 758.442 209.03 705.778 202.577Z" fill="#ABCADD"/>
<path d="M636.048 538.92C630.835 533.707 622.408 533.707 617.195 538.92L577.197 578.918C571.984 584.131 571.984 592.557 577.197 597.77C579.797 600.37 583.21 601.677 586.624 601.677C590.037 601.677 593.45 600.37 596.05 597.77L636.048 557.772C641.248 552.559 641.248 544.12 636.048 538.92Z" fill="white"/>
<path d="M537.213 618.916L497.215 658.914C492.002 664.127 492.002 672.553 497.215 677.766C499.815 680.366 503.228 681.673 506.641 681.673C510.054 681.673 513.468 680.366 516.067 677.766L556.065 637.768C561.278 632.555 561.278 624.129 556.065 618.916C550.852 613.703 542.426 613.703 537.213 618.916Z" fill="white"/>
<path d="M403.886 538.92L363.888 578.918C358.675 584.131 358.675 592.557 363.888 597.77C366.488 600.37 369.901 601.677 373.315 601.677C376.728 601.677 380.141 600.37 382.741 597.77L422.739 557.772C427.952 552.559 427.952 544.133 422.739 538.92C417.526 533.707 409.099 533.707 403.886 538.92Z" fill="white"/>
<path d="M529.4 538.92C524.187 533.707 515.761 533.707 510.547 538.92L470.549 578.918C465.336 584.131 465.336 592.557 470.549 597.77C473.149 600.37 476.562 601.677 479.976 601.677C483.389 601.677 486.802 600.37 489.402 597.77L529.4 557.772C534.613 552.559 534.613 544.12 529.4 538.92Z" fill="white"/>
<path d="M449.404 618.916C444.191 613.703 435.764 613.703 430.551 618.916L390.553 658.914C385.34 664.127 385.34 672.553 390.553 677.766C393.153 680.366 396.566 681.672 399.98 681.672C403.393 681.672 406.806 680.366 409.406 677.766L449.404 637.768C454.617 632.555 454.617 624.115 449.404 618.916Z" fill="#ABC5D3"/>
<path d="M350.556 698.912L310.558 738.91C305.345 744.123 305.345 752.549 310.558 757.762C313.158 760.362 316.571 761.668 319.984 761.668C323.397 761.668 326.81 760.362 329.41 757.762L369.408 717.764C374.621 712.551 374.621 704.125 369.408 698.912C364.195 693.699 355.769 693.699 350.556 698.912Z" fill="#ABC5D3"/>
<path d="M342.743 618.916C337.53 613.703 329.103 613.703 323.89 618.916L283.892 658.914C278.679 664.127 278.679 672.553 283.892 677.766C286.492 680.366 289.905 681.672 293.318 681.672C296.732 681.672 300.145 680.366 302.745 677.766L342.743 637.768C347.956 632.555 347.956 624.115 342.743 618.916Z" fill="#ABC5D3"/>
</g>
<defs>
<clipPath id="clip0_221_4844">
<rect width="800" height="800" fill="white"/>
</clipPath>
</defs>
</svg>
