<svg width="635" height="635" viewBox="0 0 635 635" fill="none" xmlns="http://www.w3.org/2000/svg">
<g clip-path="url(#clip0_221_4833)">
<path d="M634.746 243.426H633.889C634.259 246.643 634.513 249.892 634.513 253.215C634.513 259.067 629.783 263.798 623.93 263.798C618.078 263.798 613.347 259.067 613.347 253.215C613.347 218.196 584.869 189.718 549.851 189.718C514.832 189.718 486.354 218.196 486.354 253.215C486.354 259.067 481.623 263.798 475.771 263.798C469.919 263.798 465.188 259.067 465.188 253.215C465.188 210.206 497.455 174.659 539.035 169.325C536.643 115.998 492.64 73.3071 438.731 73.3071C384.642 73.3071 340.512 116.273 338.396 169.854C347.169 171.928 355.667 175.357 363.562 180.236C382.78 192.141 396.22 210.82 401.406 232.832C402.739 238.526 399.215 244.219 393.532 245.563C387.839 246.844 382.145 243.373 380.801 237.69C372.779 203.592 338.48 182.384 304.457 190.416C270.369 198.438 249.161 232.684 257.183 266.771C258.517 272.454 254.993 278.148 249.299 279.492C248.495 279.682 247.68 279.767 246.876 279.767C242.082 279.767 237.732 276.476 236.578 271.608C233.467 258.369 233.742 245.13 236.705 232.726C214.926 229.541 192.924 237.764 178.574 255.183C165.261 271.364 161.377 292.202 166.139 311.113C166.15 311.24 166.213 311.346 166.224 311.473C169.462 324.024 176.489 335.708 187.231 344.566C191.739 348.291 192.385 354.947 188.681 359.466C186.585 362.006 183.559 363.318 180.5 363.318C178.13 363.318 175.759 362.535 173.78 360.905C160.901 350.301 151.683 336.449 146.836 320.892C104.05 309.738 59.0625 327.739 35.8227 365.996C21.8851 388.939 17.7049 415.947 24.0758 442.033C30.4466 468.13 46.5854 490.174 69.5395 504.123C74.5346 507.16 76.122 513.658 73.0847 518.663C71.0952 521.944 67.6028 523.743 64.0364 523.743C62.6289 523.743 61.232 523.362 59.888 522.78C76.6088 532.686 95.8589 538.749 116.442 539.638L203.317 539.67C259.48 538.771 307.589 504.112 328.099 455.092C348.873 504.757 397.977 539.755 455.092 539.755C554.295 539.755 635 459.05 635 359.847V254.019L634.746 243.426Z" fill="#D0E8F9"/>
<path d="M560.211 170.045C557.766 105.077 504.292 52.9352 438.742 52.9352C373.742 52.9352 320.638 104.198 317.357 168.394C311.452 168.521 305.515 169.219 299.62 170.605C274.899 176.426 255.331 192.639 244.283 213.487C213.783 207.296 182.394 218.069 162.266 242.505C149.027 258.591 142.381 278.571 143.111 299.218C94.1127 290.392 44.2677 312.172 17.7683 355.773C0.878187 383.553 -4.16981 416.243 3.53447 447.822C11.2388 479.401 30.7852 506.091 58.565 522.981C60.2795 524.029 62.1844 524.526 64.0575 524.526C67.6345 524.526 71.1163 522.716 73.1058 519.446C76.1431 514.441 74.5557 507.943 69.5606 504.906C46.6065 490.957 30.4677 468.913 24.0969 442.816C17.726 416.73 21.9062 389.722 35.8438 366.779C59.0836 328.533 104.071 310.531 146.857 321.675C151.704 337.242 160.933 351.085 173.801 361.688C175.78 363.308 178.151 364.101 180.521 364.101C183.58 364.101 186.606 362.789 188.702 360.249C192.416 355.73 191.76 349.063 187.252 345.349C176.5 336.501 169.483 324.807 166.245 312.256C166.234 312.129 166.171 312.023 166.16 311.896C161.398 292.985 165.282 272.147 178.595 255.966C192.945 238.547 214.947 230.324 236.727 233.51C233.763 245.923 233.478 259.152 236.6 272.391C237.743 277.269 242.103 280.55 246.897 280.55C247.701 280.55 248.516 280.455 249.32 280.275C255.014 278.931 258.538 273.237 257.204 267.554C249.183 233.467 270.39 199.221 304.478 191.2C338.501 183.167 372.8 204.375 380.822 238.473C382.166 244.156 387.86 247.627 393.553 246.347C399.236 245.003 402.76 239.309 401.427 233.615C396.241 211.603 382.801 192.925 363.583 181.019C355.688 176.13 347.19 172.711 338.417 170.637C340.533 117.056 384.664 74.0902 438.752 74.0902C492.661 74.0902 536.675 116.771 539.056 170.108C497.476 175.442 465.209 210.989 465.209 253.998C465.209 259.85 469.94 264.581 475.792 264.581C481.644 264.581 486.375 259.85 486.375 253.998C486.375 218.979 514.853 190.501 549.872 190.501C584.89 190.501 613.855 218.979 613.855 253.998C613.855 254.294 613.855 268.041 613.855 285.746C613.855 291.588 618.596 296.329 624.438 296.329C630.28 296.329 635.021 291.588 635.021 285.746V253.998C635 210.831 602.013 175.167 560.211 170.045Z" fill="#ABCADD"/>
<path d="M508.006 391.585C513.848 391.585 518.589 386.844 518.589 381.002C518.589 365.742 518.589 375.711 518.589 375.711C518.589 349.455 539.956 328.088 566.212 328.088C592.468 328.088 613.834 349.455 613.834 375.711C613.834 381.563 618.575 386.294 624.417 386.294C630.259 386.294 635 381.563 635 375.711C635 337.782 604.14 306.922 566.212 306.922C530.071 306.922 500.143 334.956 497.423 370.419V381.002C497.423 386.844 502.164 391.585 508.006 391.585Z" fill="#ABCADD"/>
<path d="M273.446 536.083L273.446 536.084C274.413 538.42 274.414 541.055 273.446 543.404C272.954 544.59 272.254 545.652 271.37 546.526L271.366 546.53L197.297 620.599C195.428 622.468 192.977 623.407 190.522 623.407C188.068 623.407 185.617 622.468 183.748 620.599C180 616.851 180 610.796 183.748 607.049L239.762 551.034L241.469 549.327H239.055H201.105C199.863 549.327 198.618 549.078 197.448 548.589L197.444 548.588C195.097 547.62 193.229 545.752 192.262 543.406L192.261 543.404C191.294 541.067 191.294 538.422 192.261 536.085C192.753 534.898 193.453 533.837 194.337 532.962L194.341 532.959L300.158 427.141C303.906 423.394 309.961 423.394 313.708 427.141C317.456 430.889 317.456 436.944 313.708 440.691L225.945 528.454L224.238 530.161H226.652H264.602C265.84 530.161 267.087 530.419 268.266 530.902C270.611 531.869 272.478 533.737 273.446 536.083Z" fill="#FBD490" stroke="#F0C419" stroke-width="2"/>
<path d="M440.702 384.81L440.703 384.811C444.448 388.547 444.45 394.612 440.702 398.36L352.939 486.123L351.232 487.83H353.646H391.596C392.833 487.83 394.079 488.087 395.257 488.57C397.604 489.537 399.472 491.405 400.439 493.751C401.407 496.1 401.407 498.736 400.44 501.073C399.948 502.259 399.248 503.32 398.364 504.195L398.36 504.198L324.291 578.268C322.422 580.137 319.97 581.075 317.516 581.075C315.062 581.075 312.61 580.137 310.741 578.268C306.994 574.52 306.994 568.465 310.741 564.718L366.756 508.703L368.463 506.996H366.049H328.099C326.856 506.996 325.612 506.747 324.442 506.258L324.437 506.256C322.091 505.289 320.223 503.421 319.256 501.074L319.255 501.073C318.287 498.736 318.287 496.09 319.255 493.753C319.747 492.566 320.447 491.505 321.331 490.631L321.335 490.627L427.152 384.81C430.899 381.063 436.955 381.063 440.702 384.81Z" fill="#FBD490" stroke="#F0C419" stroke-width="2"/>
</g>
<defs>
<clipPath id="clip0_221_4833">
<rect width="635" height="635" fill="white"/>
</clipPath>
</defs>
</svg>
