<svg width="800" height="800" viewBox="0 0 800 800" fill="none" xmlns="http://www.w3.org/2000/svg">
<g clip-path="url(#clip0_219_4820)">
<path d="M705.398 147.362C702.335 65.6113 635.046 0 552.549 0C470.758 0 403.935 64.506 399.807 145.285C392.376 145.445 384.906 146.324 377.488 148.068C346.38 155.392 321.758 175.794 307.855 202.027C269.476 194.237 229.979 207.794 204.651 238.542C187.992 258.783 179.629 283.925 180.548 309.906C118.891 298.8 56.1697 326.206 22.8248 381.07C1.57133 416.027 -4.78073 457.162 4.91382 496.899C14.6084 536.636 39.2043 570.221 74.1606 591.474C76.3179 592.792 78.7149 593.418 81.072 593.418C85.573 593.418 89.9542 591.141 92.4577 587.026C96.2796 580.727 94.2821 572.551 87.9966 568.729C59.1127 551.178 38.8048 523.439 30.7881 490.6C22.7715 457.774 28.0316 423.79 45.5697 394.92C74.8131 346.793 131.422 324.141 185.262 338.164C191.361 357.753 202.973 375.171 219.166 388.514C221.656 390.552 224.639 391.551 227.622 391.551C231.471 391.551 235.279 389.899 237.916 386.703C242.59 381.017 241.764 372.628 236.092 367.953C222.562 356.821 213.733 342.106 209.658 326.312C209.645 326.152 209.565 326.019 209.551 325.859C203.559 302.062 208.446 275.842 225.198 255.481C243.256 233.561 270.941 223.214 298.347 227.223C294.618 242.843 294.259 259.489 298.187 276.148C299.625 282.287 305.112 286.415 311.144 286.415C312.156 286.415 313.182 286.295 314.194 286.069C321.358 284.378 325.793 277.213 324.115 270.062C314.021 227.169 340.707 184.077 383.6 173.983C426.414 163.875 469.573 190.562 479.667 233.468C481.358 240.619 488.523 244.987 495.687 243.376C502.838 241.685 507.273 234.52 505.595 227.356C499.069 199.657 482.157 176.153 457.974 161.172C448.04 155.02 437.347 150.718 426.307 148.108C428.97 80.6991 484.488 26.6334 552.549 26.6334C620.384 26.6334 675.769 80.3396 678.765 147.456C626.444 154.167 585.841 198.898 585.841 253.017C585.841 260.381 591.794 266.334 599.158 266.334C606.522 266.334 612.474 260.381 612.474 253.017C612.474 208.952 648.31 173.117 692.375 173.117C736.439 173.117 772.275 208.952 772.275 253.017C772.275 260.381 778.227 266.334 785.591 266.334C792.955 266.334 798.908 260.381 798.908 253.017C798.908 198.698 758.012 153.821 705.398 147.362Z" fill="#ABCADD"/>
<path d="M799.201 240.699H798.122C798.588 244.747 798.908 248.836 798.908 253.017C798.908 260.381 792.955 266.334 785.591 266.334C778.227 266.334 772.275 260.381 772.275 253.017C772.275 208.952 736.439 173.117 692.375 173.117C648.31 173.117 612.474 208.952 612.474 253.017C612.474 260.381 606.522 266.334 599.158 266.334C591.794 266.334 585.841 260.381 585.841 253.017C585.841 198.898 626.444 154.167 678.765 147.456C675.769 80.3396 620.385 26.6334 552.549 26.6334C484.488 26.6334 428.957 80.6992 426.294 148.122C437.333 150.732 448.027 155.046 457.961 161.185C482.144 176.167 499.056 199.67 505.581 227.369C507.259 234.534 502.825 241.698 495.674 243.389C488.509 245 481.345 240.633 479.654 233.482C469.56 190.575 426.4 163.889 383.587 173.996C340.694 184.09 314.007 227.183 324.101 270.076C325.779 277.227 321.345 284.391 314.181 286.082C313.169 286.322 312.143 286.429 311.131 286.429C305.099 286.429 299.625 282.287 298.174 276.162C294.259 259.502 294.605 242.843 298.334 227.236C270.928 223.228 243.243 233.575 225.185 255.494C208.433 275.855 203.546 302.076 209.538 325.873C209.551 326.033 209.631 326.166 209.645 326.325C213.719 342.119 222.562 356.821 236.078 367.967C241.751 372.654 242.563 381.03 237.903 386.717C235.266 389.913 231.457 391.564 227.609 391.564C224.626 391.564 221.643 390.579 219.153 388.528C202.946 375.184 191.347 357.753 185.248 338.177C131.409 324.142 74.7998 346.793 45.5563 394.933C28.0183 423.804 22.7582 457.788 30.7748 490.613C38.7915 523.452 59.0994 551.191 87.9833 568.742C94.2688 572.564 96.2663 580.741 92.4444 587.04C89.9409 591.168 85.5464 593.432 81.0586 593.432C79.2875 593.432 77.5297 592.952 75.8385 592.22C96.8789 604.684 121.102 612.315 147.003 613.433L573.137 613.58C697.968 613.58 799.521 512.027 799.521 387.196V254.029L799.201 240.699Z" fill="#D0E8F9"/>
<path d="M719.621 493.716C719.621 442.234 677.886 400.499 626.404 400.499C574.922 400.499 533.187 442.234 533.187 493.716C533.187 545.199 574.922 586.933 626.404 586.933C637.097 586.933 647.311 585.042 656.872 581.74C665.835 607.933 690.391 626.883 719.621 626.883C756.388 626.883 786.204 597.067 786.204 560.3C786.204 523.532 756.401 493.716 719.621 493.716Z" fill="#BFDDEF"/>
<path d="M732.178 481.492C726.079 428.504 681.002 387.183 626.404 387.183C567.664 387.183 519.87 434.976 519.87 493.716C519.87 501.067 525.836 507.033 533.187 507.033C540.538 507.033 546.503 501.067 546.503 493.716C546.503 449.651 582.339 413.816 626.404 413.816C666.394 413.816 699.512 443.366 705.305 481.758C668.058 488.536 639.72 521.135 639.72 560.3C639.72 567.65 645.686 573.616 653.037 573.616C660.388 573.616 666.354 567.65 666.354 560.3C666.354 530.923 690.244 507.033 719.62 507.033C748.997 507.033 772.887 530.923 772.887 560.3C772.887 567.65 778.853 573.616 786.204 573.616C793.555 573.616 799.521 567.65 799.521 560.3C799.521 520.523 770.277 487.537 732.178 481.492Z" fill="#ABCADD"/>
<path d="M785.684 461H13.316C5.95183 461 -0.000732422 466.966 -0.000732422 474.317C-0.000732422 481.667 5.95183 487.633 13.316 487.633H785.684C793.048 487.633 799.001 481.667 799.001 474.317C799.001 466.966 793.048 461 785.684 461Z" fill="#0096E6"/>
<path d="M783.941 517.527H61.0605C52.7323 517.527 46.0005 523.575 46.0005 531.027C46.0005 538.479 52.7323 544.527 61.0605 544.527H783.941C792.269 544.527 799.001 538.479 799.001 531.027C799.001 523.575 792.269 517.527 783.941 517.527Z" fill="#0096E6"/>
<path d="M785.684 574.42H146.483C139.119 574.42 133.166 580.386 133.166 587.737C133.166 595.087 139.119 601.053 146.483 601.053H785.684C793.048 601.053 799.001 595.087 799.001 587.737C799.001 580.386 793.048 574.42 785.684 574.42Z" fill="#0096E6"/>
<path d="M787.3 630.947H225.7C219.23 630.947 214 636.771 214 643.947C214 651.123 219.23 656.947 225.7 656.947H787.3C793.771 656.947 799 651.123 799 643.947C799 636.771 793.771 630.947 787.3 630.947Z" fill="#0096E6"/>
<path d="M785.684 686.84H279.65C272.286 686.84 266.333 692.806 266.333 700.157C266.333 707.507 272.286 713.473 279.65 713.473H785.684C793.048 713.473 799 707.507 799 700.157C799 692.806 793.048 686.84 785.684 686.84Z" fill="#0096E6"/>
<path d="M785.684 743.367H386.183C378.819 743.367 372.866 749.332 372.866 756.683C372.866 764.034 378.819 770 386.183 770H785.684C793.048 770 799 764.034 799 756.683C799 749.332 793.048 743.367 785.684 743.367Z" fill="#0096E6"/>
</g>
<defs>
<clipPath id="clip0_219_4820">
<rect width="800" height="800" fill="white"/>
</clipPath>
</defs>
</svg>
