<svg width="538" height="334" viewBox="0 0 538 334" fill="none" xmlns="http://www.w3.org/2000/svg">
<g filter="url(#filter0_d_285_260)">
<mask id="path-1-inside-1_285_260" fill="white">
<path fill-rule="evenodd" clip-rule="evenodd" d="M83.7903 131.211C80.567 121.39 78.8235 110.899 78.8235 100C78.8235 44.7715 123.595 0 178.824 0C222.646 0 259.885 28.1887 273.397 67.4229C282.706 61.2455 293.874 57.6471 305.882 57.6471C338.37 57.6471 364.706 83.9833 364.706 116.471C364.706 121.337 364.115 126.066 363.001 130.588H376.471V131.337C379.535 130.844 382.679 130.588 385.882 130.588C418.37 130.588 444.706 156.925 444.706 189.412C444.706 193.858 444.213 198.189 443.278 202.353H464.706H468.235V202.457C499.079 204.282 523.529 229.874 523.529 261.176C523.529 292.479 499.079 318.071 468.235 319.896V320H464.706H94.9092L94.7059 320L94.5025 320H78.8235V318.674C34.0804 311.119 0 272.187 0 225.294C0 176.681 36.6271 136.623 83.7903 131.211Z"/>
</mask>
<path fill-rule="evenodd" clip-rule="evenodd" d="M83.7903 131.211C80.567 121.39 78.8235 110.899 78.8235 100C78.8235 44.7715 123.595 0 178.824 0C222.646 0 259.885 28.1887 273.397 67.4229C282.706 61.2455 293.874 57.6471 305.882 57.6471C338.37 57.6471 364.706 83.9833 364.706 116.471C364.706 121.337 364.115 126.066 363.001 130.588H376.471V131.337C379.535 130.844 382.679 130.588 385.882 130.588C418.37 130.588 444.706 156.925 444.706 189.412C444.706 193.858 444.213 198.189 443.278 202.353H464.706H468.235V202.457C499.079 204.282 523.529 229.874 523.529 261.176C523.529 292.479 499.079 318.071 468.235 319.896V320H464.706H94.9092L94.7059 320L94.5025 320H78.8235V318.674C34.0804 311.119 0 272.187 0 225.294C0 176.681 36.6271 136.623 83.7903 131.211Z" fill="url(#paint0_linear_285_260)" fill-opacity="0.8" shape-rendering="crispEdges"/>
<path d="M83.7903 131.211L84.0184 133.198L86.4557 132.918L85.6906 130.587L83.7903 131.211ZM273.397 67.4229L271.506 68.0742L272.348 70.5194L274.503 69.0894L273.397 67.4229ZM363.001 130.588L361.059 130.11L360.448 132.588H363.001V130.588ZM376.471 130.588H378.471V128.588H376.471V130.588ZM376.471 131.337H374.471V133.685L376.788 133.312L376.471 131.337ZM443.278 202.353L441.326 201.915L440.779 204.353H443.278V202.353ZM468.235 202.353H470.235V200.353H468.235V202.353ZM468.235 202.457H466.235V204.342L468.117 204.454L468.235 202.457ZM468.235 319.896L468.117 317.899L466.235 318.011V319.896H468.235ZM468.235 320V322H470.235V320H468.235ZM94.9092 320L94.9092 318L94.9071 318L94.9092 320ZM94.7059 320L94.7038 322L94.708 322L94.7059 320ZM94.5025 320L94.5046 318H94.5025V320ZM78.8235 320H76.8235V322H78.8235V320ZM78.8235 318.674H80.8235V316.984L79.1565 316.702L78.8235 318.674ZM76.8235 100C76.8235 111.113 78.6015 121.815 81.8901 131.834L85.6906 130.587C82.5325 120.965 80.8235 110.684 80.8235 100H76.8235ZM178.824 -2C122.49 -2 76.8235 43.667 76.8235 100H80.8235C80.8235 45.8761 124.7 2 178.824 2V-2ZM275.288 66.7717C261.507 26.7552 223.526 -2 178.824 -2V2C221.767 2 258.264 29.6221 271.506 68.0742L275.288 66.7717ZM305.882 55.6471C293.468 55.6471 281.917 59.3683 272.291 65.7565L274.503 69.0894C283.494 63.1228 294.279 59.6471 305.882 59.6471V55.6471ZM366.706 116.471C366.706 82.8787 339.474 55.6471 305.882 55.6471V59.6471C337.265 59.6471 362.706 85.0879 362.706 116.471H366.706ZM364.943 131.067C366.095 126.389 366.706 121.5 366.706 116.471H362.706C362.706 121.175 362.135 125.743 361.059 130.11L364.943 131.067ZM376.471 128.588H363.001V132.588H376.471V128.588ZM378.471 131.337V130.588H374.471V131.337H378.471ZM385.882 128.588C382.572 128.588 379.322 128.853 376.153 129.363L376.788 133.312C379.748 132.836 382.786 132.588 385.882 132.588V128.588ZM446.706 189.412C446.706 155.82 419.474 128.588 385.882 128.588V132.588C417.265 132.588 442.706 158.029 442.706 189.412H446.706ZM445.229 202.791C446.196 198.484 446.706 194.006 446.706 189.412H442.706C442.706 193.71 442.229 197.894 441.326 201.915L445.229 202.791ZM464.706 200.353H443.278V204.353H464.706V200.353ZM468.235 200.353H464.706V204.353H468.235V200.353ZM470.235 202.457V202.353H466.235V202.457H470.235ZM468.117 204.454C497.911 206.217 521.529 230.939 521.529 261.176H525.529C525.529 228.809 500.248 202.348 468.353 200.461L468.117 204.454ZM521.529 261.176C521.529 291.414 497.911 316.136 468.117 317.899L468.353 321.892C500.248 320.005 525.529 293.544 525.529 261.176H521.529ZM470.235 320V319.896H466.235V320H470.235ZM464.706 322H468.235V318H464.706V322ZM94.9092 322H464.706V318H94.9092V322ZM94.708 322L94.9113 322L94.9071 318L94.7038 318L94.708 322ZM94.5004 322L94.7038 322L94.708 318L94.5046 318L94.5004 322ZM78.8235 322H94.5025V318H78.8235V322ZM76.8235 318.674V320H80.8235V318.674H76.8235ZM-2 225.294C-2 273.179 32.801 312.932 78.4905 320.646L79.1565 316.702C35.3598 309.307 2 271.194 2 225.294H-2ZM83.5623 129.224C35.401 134.751 -2 175.653 -2 225.294H2C2 177.709 37.8533 138.495 84.0184 133.198L83.5623 129.224Z" fill="white" mask="url(#path-1-inside-1_285_260)"/>
</g>
<defs>
<filter id="filter0_d_285_260" x="-6" y="-6" width="543.529" height="340" filterUnits="userSpaceOnUse" color-interpolation-filters="sRGB">
<feFlood flood-opacity="0" result="BackgroundImageFix"/>
<feColorMatrix in="SourceAlpha" type="matrix" values="0 0 0 0 0 0 0 0 0 0 0 0 0 0 0 0 0 0 127 0" result="hardAlpha"/>
<feOffset dx="4" dy="4"/>
<feGaussianBlur stdDeviation="5"/>
<feComposite in2="hardAlpha" operator="out"/>
<feColorMatrix type="matrix" values="0 0 0 0 0.0392157 0 0 0 0 0.164706 0 0 0 0 0.207843 0 0 0 1 0"/>
<feBlend mode="normal" in2="BackgroundImageFix" result="effect1_dropShadow_285_260"/>
<feBlend mode="normal" in="SourceGraphic" in2="effect1_dropShadow_285_260" result="shape"/>
</filter>
<linearGradient id="paint0_linear_285_260" x1="261.765" y1="0" x2="261.765" y2="320" gradientUnits="userSpaceOnUse">
<stop stop-color="#C5E4EB"/>
<stop offset="1" stop-color="#7ED0E5"/>
</linearGradient>
</defs>
</svg>
