<svg width="208" height="166" viewBox="0 0 208 166" fill="none" xmlns="http://www.w3.org/2000/svg">
<g filter="url(#filter0_d_15_154)">
<path d="M117.333 27.3333L57.3333 83.3333" stroke="white" stroke-width="3"/>
<line x1="67.6678" y1="42.3583" x2="45.5079" y2="63.0409" stroke="white" stroke-width="2" stroke-linecap="square"/>
<path d="M41.3567 59.4492L28.6667 70.6666" stroke="white" stroke-width="3" stroke-linecap="square"/>
<path d="M68.2992 40.4152L84 58" stroke="white" stroke-width="3"/>
<path d="M115.523 26.2211L180.315 91.3386" stroke="white" stroke-width="3"/>
<path d="M40.6667 58L46.6667 64" stroke="white" stroke-width="2"/>
<mask id="path-7-inside-1_15_154" fill="white">
<path fill-rule="evenodd" clip-rule="evenodd" d="M7.87402 97.6378C7.87402 97.6378 7.87402 97.6378 7.87402 97.6378C3.52532 97.6378 0 94.1125 0 89.7638C0 85.4151 3.52532 81.8898 7.87402 81.8898L7.8996 81.8898H55.1181H55.1181C59.4668 81.8898 62.9921 85.4151 62.9921 89.7638C62.9921 90.5831 63.6006 91.3386 64.4199 91.3386H72.441C76.7896 91.3386 80.3149 95.569 80.3149 100.787C80.3149 106.006 76.7896 110.236 72.441 110.236H25.22L25.1969 110.236C20.8482 110.236 17.3228 106.006 17.3228 100.787C17.3228 99.1931 16.173 97.6378 14.5787 97.6378H7.87404C7.87403 97.6378 7.87402 97.6378 7.87402 97.6378V97.6378Z"/>
</mask>
<path fill-rule="evenodd" clip-rule="evenodd" d="M7.87402 97.6378C7.87402 97.6378 7.87402 97.6378 7.87402 97.6378C3.52532 97.6378 0 94.1125 0 89.7638C0 85.4151 3.52532 81.8898 7.87402 81.8898L7.8996 81.8898H55.1181H55.1181C59.4668 81.8898 62.9921 85.4151 62.9921 89.7638C62.9921 90.5831 63.6006 91.3386 64.4199 91.3386H72.441C76.7896 91.3386 80.3149 95.569 80.3149 100.787C80.3149 106.006 76.7896 110.236 72.441 110.236H25.22L25.1969 110.236C20.8482 110.236 17.3228 106.006 17.3228 100.787C17.3228 99.1931 16.173 97.6378 14.5787 97.6378H7.87404C7.87403 97.6378 7.87402 97.6378 7.87402 97.6378V97.6378Z" fill="white" fill-opacity="0.5"/>
<path d="M7.87402 81.8898L7.8772 79.8898H7.87402V81.8898ZM7.8996 81.8898L7.89642 83.8898H7.8996V81.8898ZM55.1181 81.8898L55.1181 79.8898H55.1181V81.8898ZM25.22 110.236V108.236L25.2166 108.236L25.22 110.236ZM25.1969 110.236V112.236L25.2003 112.236L25.1969 110.236ZM-2 89.7638C-2 95.2171 2.42075 99.6378 7.87402 99.6378V95.6378C4.62989 95.6378 2 93.0079 2 89.7638H-2ZM7.87402 79.8898C2.42075 79.8898 -2 84.3105 -2 89.7638H2C2 86.5197 4.62989 83.8898 7.87402 83.8898V79.8898ZM7.90278 79.8898L7.8772 79.8898L7.87084 83.8898L7.89642 83.8898L7.90278 79.8898ZM55.1181 79.8898H7.8996V83.8898H55.1181V79.8898ZM55.1181 79.8898H55.1181V83.8898H55.1181V79.8898ZM64.9921 89.7638C64.9921 84.3106 60.5714 79.8898 55.1181 79.8898L55.1181 83.8898C58.3622 83.8898 60.9921 86.5197 60.9921 89.7638H64.9921ZM72.441 89.3386H64.4199V93.3386H72.441V89.3386ZM72.441 93.3386C75.3591 93.3386 78.3149 96.3166 78.3149 100.787H82.3149C82.3149 94.8213 78.2201 89.3386 72.441 89.3386V93.3386ZM78.3149 100.787C78.3149 105.258 75.3591 108.236 72.441 108.236V112.236C78.2201 112.236 82.3149 106.753 82.3149 100.787H78.3149ZM25.22 112.236H72.441V108.236H25.22V112.236ZM25.2003 112.236L25.2235 112.236L25.2166 108.236L25.1934 108.236L25.2003 112.236ZM15.3228 100.787C15.3228 106.754 19.4176 112.236 25.1969 112.236V108.236C22.2787 108.236 19.3228 105.258 19.3228 100.787H15.3228ZM7.87404 99.6378H14.5787V95.6378H7.87404V99.6378ZM5.87402 97.6378V97.6378H9.87402V97.6378H5.87402ZM19.3228 100.787C19.3228 98.4593 17.615 95.6378 14.5787 95.6378V99.6378C14.68 99.6378 14.8324 99.6779 15.0079 99.89C15.1954 100.117 15.3228 100.452 15.3228 100.787H19.3228ZM60.9921 89.7638C60.9921 91.4258 62.2512 93.3386 64.4199 93.3386V89.3386C64.6605 89.3386 64.8304 89.4573 64.9048 89.5424C64.9685 89.6154 64.9921 89.6892 64.9921 89.7638H60.9921ZM7.87404 95.6378C8.9786 95.6378 9.87402 96.5333 9.87402 97.6378H5.87402C5.87402 98.7424 6.76946 99.6378 7.87404 99.6378V95.6378ZM7.87402 99.6378C6.76945 99.6378 5.87402 98.7424 5.87402 97.6378H9.87402C9.87402 96.5332 8.97859 95.6378 7.87402 95.6378V99.6378Z" fill="white" mask="url(#path-7-inside-1_15_154)"/>
<mask id="path-9-inside-2_15_154" fill="white">
<path fill-rule="evenodd" clip-rule="evenodd" d="M192.126 91.3386H144.882C144.882 91.3386 144.882 91.3386 144.882 91.3386C144.882 91.3386 144.882 91.3386 144.882 91.3386L144.882 91.3386C140.533 91.3386 137.008 95.569 137.008 100.787C137.008 102.382 135.858 103.937 134.264 103.937H129.144L129.134 103.937C124.785 103.937 121.26 109.225 121.26 115.748C121.26 122.271 124.785 127.559 129.134 127.559H176.378C176.378 127.559 176.378 127.559 176.378 127.559C180.727 127.559 184.252 122.271 184.252 115.748C184.252 113.008 186.216 110.236 188.956 110.236H192.126C196.475 110.236 200 106.006 200 100.787C200 95.5689 196.475 91.3386 192.126 91.3386Z"/>
</mask>
<path fill-rule="evenodd" clip-rule="evenodd" d="M192.126 91.3386H144.882C144.882 91.3386 144.882 91.3386 144.882 91.3386C144.882 91.3386 144.882 91.3386 144.882 91.3386L144.882 91.3386C140.533 91.3386 137.008 95.569 137.008 100.787C137.008 102.382 135.858 103.937 134.264 103.937H129.144L129.134 103.937C124.785 103.937 121.26 109.225 121.26 115.748C121.26 122.271 124.785 127.559 129.134 127.559H176.378C176.378 127.559 176.378 127.559 176.378 127.559C180.727 127.559 184.252 122.271 184.252 115.748C184.252 113.008 186.216 110.236 188.956 110.236H192.126C196.475 110.236 200 106.006 200 100.787C200 95.5689 196.475 91.3386 192.126 91.3386Z" fill="white" fill-opacity="0.5"/>
<path d="M144.882 91.3386L144.882 89.3386H144.882V91.3386ZM129.144 103.937L129.143 105.937H129.144V103.937ZM129.134 103.937L129.136 101.937H129.134V103.937ZM129.134 127.559L129.134 129.559H129.134V127.559ZM176.378 127.559V129.559H176.378L176.378 127.559ZM144.882 91.3386L144.882 93.3386L144.882 91.3386ZM144.882 93.3386H192.126V89.3386H144.882V93.3386ZM144.882 93.3386H144.882L144.882 89.3386H144.882L144.882 93.3386ZM139.008 100.787C139.008 96.3166 141.964 93.3386 144.882 93.3386V89.3386C139.103 89.3386 135.008 94.8213 135.008 100.787H139.008ZM129.144 105.937H134.264V101.937H129.144V105.937ZM129.132 105.937L129.143 105.937L129.146 101.937L129.136 101.937L129.132 105.937ZM123.26 115.748C123.26 112.826 124.053 110.272 125.23 108.506C126.417 106.726 127.836 105.937 129.134 105.937V101.937C126.083 101.937 123.565 103.792 121.902 106.287C120.229 108.796 119.26 112.147 119.26 115.748H123.26ZM129.134 125.559C127.836 125.559 126.417 124.77 125.23 122.99C124.053 121.224 123.26 118.67 123.26 115.748H119.26C119.26 119.349 120.229 122.7 121.902 125.209C123.565 127.704 126.083 129.559 129.134 129.559L129.134 125.559ZM176.378 125.559H129.134V129.559H176.378V125.559ZM176.378 125.559C176.378 125.559 176.378 125.559 176.378 125.559C176.378 125.559 176.378 125.559 176.378 125.559H176.378C176.378 125.559 176.378 125.559 176.378 125.559C176.378 125.559 176.378 125.559 176.378 125.559H176.378C176.378 125.559 176.378 125.559 176.378 125.559C176.378 125.559 176.378 125.559 176.378 125.559H176.378C176.378 125.559 176.378 125.559 176.378 125.559C176.378 125.559 176.378 125.559 176.378 125.559H176.378V129.559H176.378C176.378 129.559 176.378 129.559 176.378 129.559C176.378 129.559 176.378 129.559 176.378 129.559H176.378C176.378 129.559 176.378 129.559 176.378 129.559C176.378 129.559 176.378 129.559 176.378 129.559H176.378C176.378 129.559 176.378 129.559 176.378 129.559C176.378 129.559 176.378 129.559 176.378 129.559H176.378C176.378 129.559 176.378 129.559 176.378 129.559C176.378 129.559 176.378 129.559 176.378 129.559V125.559ZM182.252 115.748C182.252 118.67 181.459 121.224 180.282 122.99C179.095 124.77 177.676 125.559 176.378 125.559L176.378 129.559C179.429 129.559 181.947 127.704 183.61 125.209C185.282 122.7 186.252 119.349 186.252 115.748H182.252ZM192.126 108.236H188.956V112.236H192.126V108.236ZM198 100.787C198 105.258 195.044 108.236 192.126 108.236V112.236C197.905 112.236 202 106.753 202 100.787H198ZM192.126 93.3386C195.044 93.3386 198 96.3166 198 100.787H202C202 94.8213 197.905 89.3386 192.126 89.3386V93.3386ZM186.252 115.748C186.252 114.832 186.588 113.897 187.134 113.219C187.67 112.554 188.31 112.236 188.956 112.236V108.236C186.862 108.236 185.151 109.304 184.019 110.71C182.898 112.103 182.252 113.923 182.252 115.748H186.252ZM142.882 91.3386C142.882 90.234 143.777 89.3386 144.882 89.3386L144.882 93.3386C145.987 93.3386 146.882 92.4432 146.882 91.3386H142.882ZM135.008 100.787C135.008 101.123 134.88 101.458 134.693 101.685C134.517 101.897 134.365 101.937 134.264 101.937V105.937C137.3 105.937 139.008 103.116 139.008 100.787H135.008ZM144.882 89.3386C143.777 89.3386 142.882 90.234 142.882 91.3386H146.882C146.882 92.4431 145.987 93.3386 144.882 93.3386V89.3386Z" fill="white" mask="url(#path-9-inside-2_15_154)"/>
<circle cx="103.937" cy="78.7402" r="77.2402" stroke="white" stroke-width="3"/>
<path d="M73.3333 120.133C73.3333 120.133 84.357 113.834 97.7428 120.133C111.129 126.432 116.64 120.133 116.64 120.133" stroke="white" stroke-width="2"/>
<path d="M54.6667 132.133C54.6667 132.133 65.6903 125.834 79.0761 132.133C92.4619 138.432 97.9737 132.133 97.9737 132.133" stroke="white" stroke-width="2"/>
<path d="M104 133.466C104 133.466 115.024 127.167 128.409 133.466C141.795 139.766 147.307 133.466 147.307 133.466" stroke="white" stroke-width="2"/>
<path d="M81.3333 145.466C81.3333 145.466 92.357 139.167 105.743 145.466C119.129 151.766 124.64 145.466 124.64 145.466" stroke="white" stroke-width="2"/>
<path d="M68.6667 72.6667L106.299 48.0315L118.898 68.5039L125.984 55.1181L163.78 74.8032" stroke="white" stroke-width="3"/>
</g>
<defs>
<filter id="filter0_d_15_154" x="0" y="0" width="208" height="165.48" filterUnits="userSpaceOnUse" color-interpolation-filters="sRGB">
<feFlood flood-opacity="0" result="BackgroundImageFix"/>
<feColorMatrix in="SourceAlpha" type="matrix" values="0 0 0 0 0 0 0 0 0 0 0 0 0 0 0 0 0 0 127 0" result="hardAlpha"/>
<feOffset dx="4" dy="4"/>
<feGaussianBlur stdDeviation="2"/>
<feComposite in2="hardAlpha" operator="out"/>
<feColorMatrix type="matrix" values="0 0 0 0 0.0392157 0 0 0 0 0.164706 0 0 0 0 0.207843 0 0 0 0.2 0"/>
<feBlend mode="normal" in2="BackgroundImageFix" result="effect1_dropShadow_15_154"/>
<feBlend mode="normal" in="SourceGraphic" in2="effect1_dropShadow_15_154" result="shape"/>
</filter>
</defs>
</svg>
